<svg width="341" height="281" viewBox="0 0 341 281" fill="none" xmlns="http://www.w3.org/2000/svg">
<rect x="6" y="193" width="303" height="80" fill="url(#paint0_radial_1_19)"/>
<circle cx="178.548" cy="137.869" r="100" transform="rotate(27.4908 178.548 137.869)" fill="url(#paint1_radial_1_19)"/>
<circle cx="178.548" cy="137.869" r="100" transform="rotate(27.4908 178.548 137.869)" fill="url(#paint2_radial_1_19)"/>
<ellipse cx="211.258" cy="69.5146" rx="10.4915" ry="6.39359" transform="rotate(27.4908 211.258 69.5146)" fill="#E0C5AD"/>
<ellipse cx="223.521" cy="85.4408" rx="4.15843" ry="3.96941" transform="rotate(27.4908 223.521 85.4408)" fill="#C5A07D"/>
<rect x="71" y="200" width="130" height="45" fill="url(#paint3_radial_1_19)"/>
<path d="M110.112 155.88C109.557 155.88 109.067 155.688 108.64 155.304C108.213 154.92 108 154.408 108 153.768C108 153.555 108.043 153.277 108.128 152.936L116.128 131.24C116.427 130.515 116.875 129.96 117.472 129.576C118.069 129.192 118.709 129 119.392 129C120.075 129 120.715 129.192 121.312 129.576C121.952 129.96 122.421 130.515 122.72 131.24L131.232 152.936C131.317 153.277 131.36 153.555 131.36 153.768C131.36 154.408 131.147 154.92 130.72 155.304C130.293 155.688 129.803 155.88 129.248 155.88C128.864 155.88 128.459 155.773 128.032 155.56C127.648 155.389 127.349 155.091 127.136 154.664L125.024 149.032C124.981 148.776 124.811 148.648 124.512 148.648H114.72C114.421 148.648 114.229 148.776 114.144 149.032L112.224 154.664C112.011 155.091 111.691 155.389 111.264 155.56C110.88 155.773 110.496 155.88 110.112 155.88ZM116.64 144.808H122.4C122.656 144.808 122.848 144.723 122.976 144.552C123.147 144.339 123.189 144.083 123.104 143.784L120.032 135.016C119.904 134.589 119.712 134.376 119.456 134.376C119.157 134.376 118.944 134.589 118.816 135.016L115.936 143.848C115.851 144.104 115.872 144.339 116 144.552C116.171 144.723 116.384 144.808 116.64 144.808Z" fill="white"/>
<path d="M141.618 155.88C140.935 155.88 140.359 155.645 139.889 155.176C139.463 154.664 139.292 154.067 139.377 153.384L142.13 131.88C142.215 131.027 142.535 130.387 143.09 129.96C143.687 129.533 144.327 129.32 145.009 129.32C145.692 129.32 146.311 129.491 146.865 129.832C147.463 130.131 147.868 130.6 148.082 131.24L153.138 145.576C153.351 146.088 153.564 146.344 153.778 146.344C154.033 146.344 154.247 146.088 154.417 145.576L159.473 131.24C159.687 130.6 160.071 130.131 160.625 129.832C161.223 129.491 161.842 129.32 162.482 129.32C163.164 129.32 163.804 129.533 164.402 129.96C164.999 130.387 165.34 131.027 165.425 131.88L168.178 153.384C168.263 154.067 168.092 154.664 167.666 155.176C167.239 155.645 166.663 155.88 165.938 155.88C165.383 155.88 164.871 155.688 164.402 155.304C163.975 154.92 163.719 154.429 163.633 153.832L162.226 138.024C162.183 137.512 162.012 137.256 161.714 137.256C161.415 137.256 161.202 137.469 161.074 137.896L156.465 150.632C156.209 151.315 155.847 151.805 155.377 152.104C154.908 152.403 154.375 152.552 153.778 152.552C152.625 152.552 151.751 151.912 151.153 150.632L146.481 137.896C146.311 137.469 146.097 137.256 145.841 137.256C145.671 137.256 145.543 137.512 145.458 138.024L143.922 153.832C143.879 154.429 143.623 154.92 143.153 155.304C142.727 155.688 142.215 155.88 141.618 155.88Z" fill="white"/>
<path d="M181.283 155.24C180.387 155.24 179.576 154.941 178.851 154.344C178.125 153.704 177.762 152.829 177.762 151.72V132.968C177.762 131.987 178.082 131.197 178.722 130.6C179.405 129.96 180.194 129.64 181.09 129.64H187.106C189.112 129.64 190.883 130.195 192.419 131.304C193.955 132.371 194.722 133.907 194.722 135.912C194.722 136.979 194.488 137.981 194.019 138.92C193.592 139.816 193.016 140.499 192.29 140.968C193.528 141.395 194.509 142.184 195.234 143.336C195.96 144.445 196.323 145.768 196.323 147.304C196.323 149.864 195.555 151.827 194.019 153.192C192.483 154.557 190.562 155.24 188.258 155.24H181.283ZM183.778 151.336H188.258C189.624 151.336 190.605 150.931 191.202 150.12C191.842 149.267 192.162 148.349 192.162 147.368C192.162 146.472 191.864 145.619 191.267 144.808C190.669 143.997 189.752 143.592 188.514 143.592H183.522C182.584 143.592 182.115 144.083 182.115 145.064V149.672C182.115 150.781 182.669 151.336 183.778 151.336ZM183.522 140.008H187.234C188.301 140.008 189.112 139.645 189.666 138.92C190.221 138.195 190.498 137.427 190.498 136.616C190.498 135.848 190.221 135.144 189.666 134.504C189.154 133.821 188.344 133.48 187.234 133.48H183.842C182.69 133.48 182.115 134.035 182.115 135.144V138.536C182.115 139.517 182.584 140.008 183.522 140.008Z" fill="white"/>
<path d="M209.145 155.24C208.078 155.24 207.225 154.92 206.585 154.28C205.945 153.64 205.625 152.787 205.625 151.72V132.968C205.625 131.987 205.945 131.197 206.585 130.6C207.268 129.96 208.057 129.64 208.953 129.64H218.617C219.342 129.64 219.854 129.832 220.153 130.216C220.494 130.557 220.665 131.005 220.665 131.56C220.665 132.072 220.473 132.52 220.089 132.904C219.748 133.288 219.257 133.48 218.617 133.48H211.769C210.66 133.48 210.105 134.035 210.105 135.144V138.664C210.105 139.773 210.617 140.328 211.641 140.328H217.977C218.702 140.328 219.214 140.52 219.513 140.904C219.854 141.288 220.025 141.736 220.025 142.248C220.025 142.717 219.833 143.165 219.449 143.592C219.108 143.976 218.617 144.168 217.977 144.168H211.641C210.617 144.168 210.105 144.701 210.105 145.768V149.672C210.105 150.781 210.638 151.336 211.705 151.336H219.257C219.982 151.336 220.494 151.549 220.793 151.976C221.134 152.36 221.305 152.808 221.305 153.32C221.305 153.832 221.113 154.28 220.729 154.664C220.388 155.048 219.897 155.24 219.257 155.24H209.145Z" fill="white"/>
<path d="M233.101 155.88C232.546 155.88 232.034 155.667 231.565 155.24C231.138 154.856 230.925 154.387 230.925 153.832V133.16C230.925 132.008 231.309 131.133 232.077 130.536C232.888 129.939 233.741 129.64 234.637 129.64H240.909C242.36 129.64 243.704 129.96 244.941 130.6C246.221 131.197 247.245 132.072 248.013 133.224C248.781 134.333 249.165 135.677 249.165 137.256C249.165 138.749 248.717 140.179 247.821 141.544C246.968 142.867 245.858 143.763 244.493 144.232C245.09 144.488 245.645 144.915 246.157 145.512C246.712 146.067 247.202 146.813 247.629 147.752L249.933 152.936C250.061 153.192 250.125 153.469 250.125 153.768C250.125 154.536 249.869 155.091 249.357 155.432C248.888 155.773 248.397 155.944 247.885 155.944C247.032 155.944 246.434 155.539 246.093 154.728L243.469 148.584C242.914 147.347 242.21 146.493 241.357 146.024C240.504 145.555 239.565 145.32 238.541 145.32H236.941C235.832 145.32 235.277 145.96 235.277 147.24V153.832C235.277 154.387 235.064 154.856 234.637 155.24C234.21 155.667 233.698 155.88 233.101 155.88ZM236.685 141.48H240.269C241.336 141.48 242.36 141.139 243.341 140.456C244.365 139.731 244.877 138.707 244.877 137.384C244.877 136.104 244.408 135.144 243.469 134.504C242.573 133.864 241.592 133.544 240.525 133.544H236.877C235.81 133.544 235.277 134.077 235.277 135.144V140.008C235.277 140.989 235.746 141.48 236.685 141.48Z" fill="white"/>
<defs>
<radialGradient id="paint0_radial_1_19" cx="0" cy="0" r="1" gradientUnits="userSpaceOnUse" gradientTransform="translate(157.5 233) rotate(90) scale(40 151.5)">
<stop stop-color="#131313"/>
<stop offset="1" stop-color="#BEBEBE" stop-opacity="0"/>
</radialGradient>
<radialGradient id="paint1_radial_1_19" cx="0" cy="0" r="1" gradientUnits="userSpaceOnUse" gradientTransform="translate(178.548 194.869) rotate(90) scale(100 106.818)">
<stop stop-color="#F1C010"/>
<stop offset="1" stop-color="#884C15"/>
</radialGradient>
<radialGradient id="paint2_radial_1_19" cx="0" cy="0" r="1" gradientUnits="userSpaceOnUse" gradientTransform="translate(178.548 137.869) rotate(90) scale(100)">
<stop offset="0.572917" stop-color="white" stop-opacity="0"/>
<stop offset="0.848958" stop-color="white" stop-opacity="0.23"/>
<stop offset="1" stop-color="white" stop-opacity="0.69"/>
</radialGradient>
<radialGradient id="paint3_radial_1_19" cx="0" cy="0" r="1" gradientUnits="userSpaceOnUse" gradientTransform="translate(136 222.5) rotate(90) scale(22.5 65)">
<stop stop-color="#FFE794"/>
<stop offset="1" stop-color="#FFCA0F" stop-opacity="0"/>
</radialGradient>
</defs>
</svg>
